<?xml version="1.0" standalone="no"?>
<!DOCTYPE svg PUBLIC "-//W3C//DTD SVG 20010904//EN"
 "http://www.w3.org/TR/2001/REC-SVG-20010904/DTD/svg10.dtd">
<svg version="1.0" xmlns="http://www.w3.org/2000/svg"
 width="513.000000pt" height="513.000000pt" viewBox="0 0 513.000000 513.000000"
 preserveAspectRatio="xMidYMid meet">
<metadata>
Created by potrace 1.11, written by Peter Selinger 2001-2013
</metadata>
<g transform="translate(0.000000,513.000000) scale(0.100000,-0.100000)"
fill="#000000" stroke="none">
<path d="M3327 5115 c-74 -28 -115 -66 -155 -144 l-37 -75 -2 -2335 -2 -2336
35 -57 c57 -93 128 -145 211 -155 37 -4 57 1 109 27 107 52 150 127 159 273 6
92 8 1375 6 3440 -2 1150 -2 1159 -22 1199 -35 68 -105 135 -165 158 -63 23
-85 24 -137 5z"/>
<path d="M1611 4463 c-36 -7 -104 -82 -138 -153 l-31 -65 0 -1680 1 -1680 28
-56 c37 -74 71 -114 125 -145 40 -24 51 -26 111 -20 109 11 165 45 210 126 28
50 33 78 40 209 7 151 7 2967 0 3134 -7 145 -22 205 -68 260 -46 56 -90 74
-179 75 -41 0 -86 -2 -99 -5z"/>
<path d="M2473 3831 c-82 -38 -101 -57 -165 -170 -18 -32 -19 -65 -15 -1090 2
-876 5 -1063 17 -1095 18 -50 92 -131 144 -158 49 -26 134 -28 186 -5 81 35
146 134 158 240 9 79 9 1940 0 2028 -11 114 -64 197 -150 239 -61 29 -125 33
-175 11z"/>
<path d="M765 3824 c-42 -22 -104 -85 -124 -128 -29 -60 -34 -124 -36 -501 -2
-187 -3 -343 -4 -347 -1 -4 -58 -7 -128 -6 -71 0 -140 -4 -155 -10 -29 -12
-58 -58 -58 -92 0 -32 30 -78 59 -89 14 -6 100 -12 191 -15 211 -5 242 -17
242 -90 0 -76 -31 -101 -133 -111 -116 -12 -154 -32 -162 -90 -9 -60 38 -109
113 -117 l34 -4 2 -320 c1 -175 4 -341 8 -368 9 -67 36 -124 81 -170 98 -99
231 -98 326 2 81 84 89 106 95 262 7 166 6 1712 0 1846 -7 129 -8 137 -25 199
-10 40 -87 124 -139 153 -29 16 -153 14 -187 -4z"/>
<path d="M4191 3518 c-69 -19 -139 -79 -186 -160 l-27 -48 -1 -702 c-1 -387 2
-722 6 -745 9 -60 32 -110 73 -160 44 -54 71 -72 126 -85 61 -15 93 -11 154
18 119 56 161 165 163 428 1 82 4 152 6 156 2 4 61 8 131 8 70 1 141 6 159 12
66 22 86 129 31 166 -34 22 -54 24 -269 28 -208 3 -227 8 -252 56 -19 37 -19
51 2 94 21 45 43 52 173 55 122 2 158 17 176 71 23 69 -25 130 -102 130 -37 0
-44 3 -48 23 -3 12 -7 115 -10 229 -4 177 -8 214 -24 250 -27 61 -82 119 -138
150 -58 31 -97 38 -143 26z"/>
<path d="M39 2818 c-48 -52 -48 -111 3 -153 16 -14 40 -25 52 -25 31 0 76 50
82 92 5 29 1 41 -26 71 -38 44 -78 49 -111 15z"/>
<path d="M4988 2418 c-27 -23 -48 -62 -48 -90 0 -36 54 -98 86 -98 35 0 82 48
90 92 6 34 3 41 -29 73 -37 37 -71 45 -99 23z"/>
</g>
</svg>
